<svg xmlns="http://www.w3.org/2000/svg" viewBox="0 0 100 100">
  <defs>
    <!-- Gradiente principal (roxo/azul) -->
    <linearGradient id="grad1" x1="0%" y1="0%" x2="100%" y2="100%">
      <stop offset="0%" style="stop-color:#6366f1;stop-opacity:1" />
      <stop offset="100%" style="stop-color:#4f46e5;stop-opacity:1" />
    </linearGradient>
    
    <!-- Gradiente do badge (azul/roxo) -->
    <linearGradient id="grad2" x1="0%" y1="0%" x2="100%" y2="100%">
      <stop offset="0%" style="stop-color:#3b82f6;stop-opacity:1" />
      <stop offset="100%" style="stop-color:#8b5cf6;stop-opacity:1" />
    </linearGradient>
  </defs>
  
  <!-- Fundo arredondado com gradiente -->
  <rect width="100" height="100" rx="22" fill="url(#grad1)"/>
  
  <!-- Ãcone de planilha (3 linhas) -->
  <rect x="25" y="28" width="50" height="12" rx="2" fill="white" opacity="0.95"/>
  <rect x="25" y="44" width="50" height="12" rx="2" fill="white" opacity="0.95"/>
  <rect x="25" y="60" width="35" height="12" rx="2" fill="white" opacity="0.95"/>
  
  <!-- Badge com sparkle -->
  <circle cx="75" cy="75" r="16" fill="url(#grad2)"/>
  
  <!-- Sparkle icon -->
  <path d="M75 67 L76.5 72 L81.5 73.5 L76.5 75 L75 80 L73.5 75 L68.5 73.5 L73.5 72 Z" fill="white"/>
  <path d="M70 70 L70.8 72 L73 72.8 L70.8 73.6 L70 76 L69.2 73.6 L67 72.8 L69.2 72 Z" fill="white" opacity="0.7"/>
</svg>